<svg width="22" height="22" viewBox="0 0 22 22" fill="none" xmlns="http://www.w3.org/2000/svg">
<path d="M4.72615 8.51312L16.3186 8.51304C18.3765 8.51304 20.0447 6.83119 20.0447 4.75652C20.0447 2.68185 18.3765 1 16.3186 1L4.72615 1.00008M4.72615 8.51312C2.66825 8.51312 1 6.83127 1 4.7566C1 2.68193 2.66825 1.00008 4.72615 1.00008M4.72615 8.51312C6.78404 8.51312 8.45229 6.83127 8.45229 4.7566C8.45229 2.68193 6.78404 1.00008 4.72615 1.00008M16.4739 12.687H4.72615C2.66825 12.687 1 14.3688 1 16.4435C1 18.5181 2.66825 20.2 4.72615 20.2H16.4739M16.4739 12.687C18.5317 12.687 20.2 14.3688 20.2 16.4435C20.2 18.5181 18.5317 20.2 16.4739 20.2M16.4739 12.687C14.416 12.687 12.7477 14.3688 12.7477 16.4435C12.7477 18.5181 14.416 20.2 16.4739 20.2" stroke="#38424C" stroke-width="2"/>
</svg>
